<svg xmlns="http://www.w3.org/2000/svg" viewBox="0 0 512 512"><path class="st0" d="M100.3 328V27.1c0-9.2-7.5-16.7-16.7-16.7H16.7C7.5 10.4 0 17.9 0 27.1V328c0 9.2 7.5 16.7 16.7 16.7h66.9c9.2 0 16.7-7.4 16.7-16.7zm370 16.7c44.6-7.5 57.3-68 19.2-92.4 12.9-22.9 5.4-52.7-16.7-66.9 12.9-22.9 5.4-52.7-16.7-66.9 18.5-32.8-6.1-74.8-43.7-74.7H133.7v267.5s80.6 73 106.6 98.3c14.9 14.5 24.5 33.9 28.4 54.2 1.5 8 1.1 16.5 5.4 23.7 3.7 6.3 9.9 11 17 12.8 12.4 3.1 27.7.2 38.7-5.7 33.7-18 41.6-68.7 29.4-101.8l-17.6-48c-.1-.1 126 .4 128.7-.1z"/></svg>