<svg xmlns="http://www.w3.org/2000/svg" width="974" height="974"><path d="M205.4 421.2c-11 0-20.4 8.8-20.4 19.8v94.3c0 11 9.3 19.801 20.4 19.801h229.9L301 421.2h-95.6zM654 533.8V421.2H541.1zm104.4-112.6H681v134h77.4c11 0 19.6-8.8 19.6-19.8v-94.3c0-11.1-8.6-19.9-19.6-19.9z"/><path d="M831.4 142.6c-44.7-44.7-96.8-79.8-154.8-104.3C616.5 12.9 552.7 0 487 0S357.5 12.9 297.4 38.3c-58 24.5-110.101 59.6-154.8 104.3-44.7 44.7-79.8 96.8-104.3 154.8C12.9 357.5 0 421.3 0 487s12.9 129.5 38.3 189.601c24.5 58 59.6 110.1 104.3 154.8 44.7 44.7 96.8 79.8 154.8 104.3C357.5 961.101 421.3 974 487 974s129.5-12.899 189.6-38.3c58-24.5 110.101-59.6 154.801-104.3 44.699-44.7 79.8-96.8 104.3-154.8C961.1 616.5 974 552.7 974 487s-12.9-129.5-38.3-189.6c-24.5-58-59.6-110-104.3-154.8zM487 874c-103.4 0-200.6-40.2-273.7-113.3C140.3 687.5 100 590.4 100 487c0-86.5 28.2-168.6 80.2-236L723 793.7c-67.3 52-149.5 80.3-236 80.3zm306.8-151L251 180.3c67.4-52 149.5-80.3 236-80.3 103.4 0 200.6 40.2 273.7 113.3C833.7 286.5 874 383.6 874 487c0 86.5-28.2 168.601-80.2 236z"/><path d="M708.3 381.6c8.8 5.3 17.3 10.9 25.4 17.4 3.2 2.601 8 1.2 9.399-2.6.301-.8.5-1.4.601-1.601 6.7-26.3-4.5-54.7-21.7-74.6-17.2-20-40.6-33.6-64.8-44.1-12.7-5.5-25.7-10.4-38.601-15.3-12-4.5-25.699-8.4-36.699-15.1-3.601-2.2-8.301 0-9 4.1-.101.5-.2 3-.2 4 .5 23.2 14.6 45 30.2 61.2 15.699 16.3 34.899 28.7 54.699 39.4 1.4.7 2.801 1.5 4.2 2.2C677.4 364.9 693.2 372.6 708.3 381.6z"/></svg>