<svg xmlns="http://www.w3.org/2000/svg" viewBox="0 0 512.001 512.001" width="512" height="512"><path d="M294.137 62.109c-10.469-6.181-17.764-12.212-37.992-12.212-19.766 0-27.334 5.925-37.429 11.684a39.37 39.37 0 0 0-1.726 11.55c0 21.737 17.622 39.36 39.361 39.36s39.361-17.623 39.361-39.361c0-3.826-.557-7.523-1.575-11.021zM159.675 299.462l-.05 9.822c-.052 10.488 8.407 19.034 18.897 19.086h.098c10.444 0 18.937-8.44 18.99-18.897l.05-10.012h-37.985zm154.597.001l-.009 9.899c-.01 10.488 8.485 18.999 18.975 19.009h.018c10.482 0 18.983-8.492 18.992-18.975l.009-9.934h-37.985z"/><path d="M352.376 169.756c-.124-24.657-20.287-44.718-44.944-44.718h-21.214c-4.165 10.881-18.012 47.055-22.381 58.473l5.292-24.931a7.456 7.456 0 0 0-.761-5.145l-7.268-13.219 6.461-11.751a2.63 2.63 0 0 0-2.304-3.898h-17.734a2.63 2.63 0 0 0-2.305 3.898l6.461 11.751-7.295 13.268a7.463 7.463 0 0 0-.78 5.049l4.627 24.978c-4.237-10.867-17.894-47.562-22.148-58.473H205.27c-24.66 0-44.821 20.062-44.943 44.719l-.573 114.086h37.985l.572-113.896a3.767 3.767 0 0 1 7.535.018l.009 319.245c0 12.587 10.204 22.791 22.791 22.791s22.791-10.204 22.791-22.791V307.044h9.84V489.21c0 12.587 10.204 22.791 22.791 22.791s22.791-10.204 22.791-22.791c0-301.393-.404-128.817-.414-319.286a3.974 3.974 0 0 1 7.948-.018l-.105 113.937h37.984l.105-113.972-.001-.115zm-96.231 91.991a5.724 5.724 0 1 1 0-11.449 5.724 5.724 0 0 1 0 11.449zm0-27.581a5.724 5.724 0 1 1 0-11.449 5.724 5.724 0 0 1 0 11.449zm0-27.58a5.726 5.726 0 0 1-5.724-5.724c0-3.129 2.543-5.724 5.724-5.724 3.191 0 5.724 2.615 5.724 5.724 0 3.246-2.713 5.724-5.724 5.724zM285.756 0h-58.733a4.734 4.734 0 0 0-4.734 4.734v39.231c8.145-4.647 20.286-7.598 33.856-7.598 13.841 0 26.202 3.068 34.346 7.877V4.734A4.736 4.736 0 0 0 285.756 0z"/></svg>