<svg xmlns="http://www.w3.org/2000/svg" viewBox="0 0 55.083 55.083"><g fill="#010002"><path d="M48.955 48.185c-2.168-5.723-4.41-11.469-7.139-16.951-.803-1.613-2.342-1.951-3.66-1.518-.395-.002-.791-.002-1.186-.006 1.82-.639 3.041-3.013 1.215-4.703a85.837 85.837 0 0 1-9.512-10.377 1.983 1.983 0 0 0-.463-.426 4.718 4.718 0 0 0-1.953-1.062c-2.383-.654-5.572.8-6.021 3.434a186.027 186.027 0 0 0-1.904 14.517 3.97 3.97 0 0 0-.007.545c-.286 1.891.718 4.184 2.991 4.4 5.236.496 10.533.111 15.799.037 2.312 4.891 4.285 9.959 6.199 15.012 1.453 3.826 7.072.871 5.641-2.902zM28.297 29.557c.188-1.891.414-3.779.671-5.662a84.398 84.398 0 0 0 5.141 5.187c.311.288.641.485.975.614-2.262-.02-4.527-.056-6.787-.139z"/><circle cx="26.639" cy="5.624" r="5.624"/><path d="M40.459 45.968a1.153 1.153 0 0 0-1.59.363 13.687 13.687 0 0 1-11.652 6.445c-7.583 0-13.753-6.17-13.753-13.752 0-3.672 1.431-7.127 4.028-9.725a1.151 1.151 0 0 0-1.172-1.907l-.479-7.023a1.157 1.157 0 0 0-.708-.987l-7.642-3.171a1.153 1.153 0 1 0-.883 2.131l6.981 2.897.578 8.451a15.93 15.93 0 0 0-3.009 9.334c0 8.854 7.205 16.059 16.06 16.059 5.559 0 10.643-2.812 13.604-7.527a1.151 1.151 0 0 0-.363-1.588z"/></g></svg>