<svg xmlns="http://www.w3.org/2000/svg" viewBox="0 0 45.564 45.564"><path d="M43.583 36.837H1.98a1.98 1.98 0 0 0 0 3.961h41.604a1.98 1.98 0 0 0-.001-3.961zM3.45 34.602h8.899a.618.618 0 0 0 .455-.223.638.638 0 0 0 .15-.495c-.334-2.115-1.94-3.801-4.03-4.211v-.743c0-.547-.461-.989-1.009-.989s-1.009.442-1.009.989v.742a5.105 5.105 0 0 0-4.047 4.212.63.63 0 0 0 .137.495c.114.132.28.223.454.223zm13.58 0h24.549a.483.483 0 0 0 .465-.411c.292-1.836 1.399-9.535-.063-11.765-.987-1.503-3.522-2.535-6.273-3.193-.021.016-6.416 14.375-6.416 14.375S23.065 19.21 23.05 19.197c-2.763.657-5.429 1.721-6.418 3.229-1.464 2.229-.356 9.929-.065 11.765a.481.481 0 0 0 .463.411zm12.275-16.107a6.873 6.873 0 0 0 6.865-6.865 6.873 6.873 0 0 0-6.865-6.865c-3.785 0-6.864 3.08-6.864 6.865s3.079 6.865 6.864 6.865zm-4.703-7.547a8.28 8.28 0 0 0 .365-.051c1.473-.234 4.258-.984 5.329-3.363 0 0 1.013 2.248 3.354 2.174.195.526.406 1.238.406 1.922a4.759 4.759 0 0 1-4.752 4.753 4.76 4.76 0 0 1-4.754-4.753 4.79 4.79 0 0 1 .052-.682z"/><path d="M28.541 19.4c-.202 0-.379.198-.379.43v8.253c0 .09.031.176.076.246l.77 1.201c.067.106.178.17.293.172s.225-.059.295-.162l.807-1.207a.457.457 0 0 0 .065-.256V19.83c0-.231-.144-.43-.347-.43h-1.58z"/></svg>