<svg xmlns="http://www.w3.org/2000/svg" width="969.933" height="969.933"><path d="M421.732.323L186.244 0c-5.528-.008-10.014 4.472-10.014 10v105.054l255.488 126.492V10.323c0-5.518-4.468-9.993-9.986-10zM293.948 68.319c0 5.523-4.478 10-10 10h-40c-5.523 0-10-4.477-10-10v-8c0-5.523 4.477-10 10-10h40c5.523 0 10 4.477 10 10v8zm80.054 0c0 5.523-4.478 10-10 10h-40c-5.523 0-10-4.477-10-10v-8c0-5.523 4.477-10 10-10h40c5.522 0 10 4.477 10 10v8zM792.214.323L556.726 0c-5.527-.008-10.014 4.472-10.014 10v105.054L802.2 241.546V10.323c.001-5.518-4.469-9.993-9.986-10zM664.429 68.319c0 5.523-4.477 10-10 10h-40c-5.522 0-10-4.477-10-10v-8c0-5.523 4.478-10 10-10h40c5.523 0 10 4.477 10 10v8zm80.054 0c0 5.523-4.477 10-10 10h-40c-5.522 0-10-4.477-10-10v-8c0-5.523 4.478-10 10-10h40c5.523 0 10 4.477 10 10v8z"/><path d="M136.234 136.212v787.552H74.966c-5.523 0-10 4.478-10 10v26.169c0 5.523 4.477 10 10 10h820c5.523 0 10-4.477 10-10v-26.169c0-5.522-4.477-10-10-10h-61.268v-635.57a10 10 0 0 0-5.563-8.962L521.152 127.25c-6.646-3.291-14.437 1.545-14.437 8.962v787.552h-43.498v-635.57a10 10 0 0 0-5.563-8.962L150.67 127.25c-6.646-3.291-14.436 1.545-14.436 8.962zm584.333 189.107c0-5.523 4.478-10 10-10h40c5.523 0 10 4.477 10 10v8c0 5.523-4.477 10-10 10h-40c-5.522 0-10-4.477-10-10v-8zm0 96c0-5.523 4.478-10 10-10h40c5.523 0 10 4.477 10 10v8c0 5.522-4.477 10-10 10h-40c-5.522 0-10-4.478-10-10v-8zm0 96c0-5.523 4.478-10 10-10h40c5.523 0 10 4.477 10 10v8c0 5.522-4.477 10-10 10h-40c-5.522 0-10-4.478-10-10v-8zm0 96c0-5.523 4.478-10 10-10h40c5.523 0 10 4.477 10 10v8c0 5.522-4.477 10-10 10h-40c-5.522 0-10-4.478-10-10v-8zm0 96c0-5.523 4.478-10 10-10h40c5.523 0 10 4.477 10 10v8c0 5.522-4.477 10-10 10h-40c-5.522 0-10-4.478-10-10v-8zm0 96c0-5.523 4.478-10 10-10h40c5.523 0 10 4.477 10 10v8c0 5.522-4.477 10-10 10h-40c-5.522 0-10-4.478-10-10v-8zm-80.359-480c0-5.523 4.477-10 10-10h40c5.522 0 10 4.477 10 10v8c0 5.523-4.478 10-10 10h-40c-5.523 0-10-4.477-10-10v-8zm0 96c0-5.523 4.477-10 10-10h40c5.522 0 10 4.477 10 10v8c0 5.522-4.478 10-10 10h-40c-5.523 0-10-4.478-10-10v-8zm0 96c0-5.523 4.477-10 10-10h40c5.522 0 10 4.477 10 10v8c0 5.522-4.478 10-10 10h-40c-5.523 0-10-4.478-10-10v-8zm0 96c0-5.523 4.477-10 10-10h40c5.522 0 10 4.477 10 10v8c0 5.522-4.478 10-10 10h-40c-5.523 0-10-4.478-10-10v-8zm0 96c0-5.523 4.477-10 10-10h40c5.522 0 10 4.477 10 10v8c0 5.522-4.478 10-10 10h-40c-5.523 0-10-4.478-10-10v-8zm0 96c0-5.523 4.477-10 10-10h40c5.522 0 10 4.477 10 10v8c0 5.522-4.478 10-10 10h-40c-5.523 0-10-4.478-10-10v-8zm-16.97 74.725c0-5.523 4.477-10 10-10h73.939c5.523 0 10 4.477 10 10v43.719h-93.939v-43.719zm-63.392-554.725c0-5.523 4.478-10 10-10h40c5.523 0 10 4.477 10 10v8c0 5.523-4.477 10-10 10h-40c-5.522 0-10-4.477-10-10v-8zm0 96c0-5.523 4.478-10 10-10h40c5.523 0 10 4.477 10 10v8c0 5.522-4.477 10-10 10h-40c-5.522 0-10-4.478-10-10v-8zm0 96c0-5.523 4.478-10 10-10h40c5.523 0 10 4.477 10 10v8c0 5.522-4.477 10-10 10h-40c-5.522 0-10-4.478-10-10v-8zm0 96c0-5.523 4.478-10 10-10h40c5.523 0 10 4.477 10 10v8c0 5.522-4.477 10-10 10h-40c-5.522 0-10-4.478-10-10v-8zm0 96c0-5.523 4.478-10 10-10h40c5.523 0 10 4.477 10 10v8c0 5.522-4.477 10-10 10h-40c-5.522 0-10-4.478-10-10v-8zm0 96c0-5.523 4.478-10 10-10h40c5.523 0 10 4.477 10 10v8c0 5.522-4.477 10-10 10h-40c-5.522 0-10-4.478-10-10v-8zm-209.76-480c0-5.523 4.477-10 10-10h40c5.522 0 10 4.477 10 10v8c0 5.523-4.478 10-10 10h-40c-5.523 0-10-4.477-10-10v-8zm0 96c0-5.523 4.477-10 10-10h40c5.522 0 10 4.477 10 10v8c0 5.522-4.478 10-10 10h-40c-5.523 0-10-4.478-10-10v-8zm0 96c0-5.523 4.477-10 10-10h40c5.522 0 10 4.477 10 10v8c0 5.522-4.478 10-10 10h-40c-5.523 0-10-4.478-10-10v-8zm0 96c0-5.523 4.477-10 10-10h40c5.522 0 10 4.477 10 10v8c0 5.522-4.478 10-10 10h-40c-5.523 0-10-4.478-10-10v-8zm0 96c0-5.523 4.477-10 10-10h40c5.522 0 10 4.477 10 10v8c0 5.522-4.478 10-10 10h-40c-5.523 0-10-4.478-10-10v-8zm0 96c0-5.523 4.477-10 10-10h40c5.522 0 10 4.477 10 10v8c0 5.522-4.478 10-10 10h-40c-5.523 0-10-4.478-10-10v-8zm-80.361-480c0-5.523 4.477-10 10-10h40c5.523 0 10 4.477 10 10v8c0 5.523-4.477 10-10 10h-40c-5.523 0-10-4.477-10-10v-8zm0 96c0-5.523 4.477-10 10-10h40c5.523 0 10 4.477 10 10v8c0 5.522-4.477 10-10 10h-40c-5.523 0-10-4.478-10-10v-8zm0 96c0-5.523 4.477-10 10-10h40c5.523 0 10 4.477 10 10v8c0 5.522-4.477 10-10 10h-40c-5.523 0-10-4.478-10-10v-8zm0 96c0-5.523 4.477-10 10-10h40c5.523 0 10 4.477 10 10v8c0 5.522-4.477 10-10 10h-40c-5.523 0-10-4.478-10-10v-8zm0 96c0-5.523 4.477-10 10-10h40c5.523 0 10 4.477 10 10v8c0 5.522-4.477 10-10 10h-40c-5.523 0-10-4.478-10-10v-8zm0 96c0-5.523 4.477-10 10-10h40c5.523 0 10 4.477 10 10v8c0 5.522-4.477 10-10 10h-40c-5.523 0-10-4.478-10-10v-8zm-16.97 74.725c0-5.523 4.477-10 10-10h73.939c5.523 0 10 4.477 10 10v43.719h-93.939v-43.719zm-63.39-554.725c0-5.523 4.477-10 10-10h40c5.523 0 10 4.477 10 10v8c0 5.523-4.477 10-10 10h-40c-5.523 0-10-4.477-10-10v-8zm0 96c0-5.523 4.477-10 10-10h40c5.523 0 10 4.477 10 10v8c0 5.522-4.477 10-10 10h-40c-5.523 0-10-4.478-10-10v-8zm0 96c0-5.523 4.477-10 10-10h40c5.523 0 10 4.477 10 10v8c0 5.522-4.477 10-10 10h-40c-5.523 0-10-4.478-10-10v-8zm0 96c0-5.523 4.477-10 10-10h40c5.523 0 10 4.477 10 10v8c0 5.522-4.477 10-10 10h-40c-5.523 0-10-4.478-10-10v-8zm0 96c0-5.523 4.477-10 10-10h40c5.523 0 10 4.477 10 10v8c0 5.522-4.477 10-10 10h-40c-5.523 0-10-4.478-10-10v-8zm0 96c0-5.523 4.477-10 10-10h40c5.523 0 10 4.477 10 10v8c0 5.522-4.477 10-10 10h-40c-5.523 0-10-4.478-10-10v-8z"/></svg>