<svg xmlns="http://www.w3.org/2000/svg" viewBox="0 0 512 512"><path d="M512 173.384C512 77.781 434.221 0 338.616 0c-30.047 0-59.654 7.809-85.621 22.583-25.175 14.322-46.554 34.912-61.828 59.541a8.15 8.15 0 0 0 2.632 11.225 8.152 8.152 0 0 0 11.225-2.632c28.897-46.594 78.838-74.412 133.593-74.412 86.614 0 157.079 70.466 157.079 157.079 0 86.614-70.465 157.079-157.079 157.079-2.086 0-4.179-.054-6.27-.137l12.035-12.034a8.152 8.152 0 0 0 0-11.529 8.15 8.15 0 0 0-11.529 0l-26.089 26.089a8.152 8.152 0 0 0 0 11.529l26.089 26.089c1.591 1.591 3.679 2.387 5.765 2.387s4.173-.796 5.765-2.387a8.152 8.152 0 0 0 0-11.529l-12.309-12.309c2.183.082 4.366.136 6.543.136C434.221 346.769 512 268.989 512 173.384z"/><path d="M425.58 200.017h-9.24v-78.811a8.153 8.153 0 0 0-8.153-8.153 8.153 8.153 0 0 0-8.153 8.153v78.811h-34.081l15.443-77.212a8.15 8.15 0 0 0-6.395-9.593 8.15 8.15 0 0 0-9.593 6.395l-17.393 86.964a8.153 8.153 0 0 0 7.994 9.752h44.026v17.936a8.152 8.152 0 0 0 8.153 8.153 8.152 8.152 0 0 0 8.153-8.153v-17.936h9.24a8.152 8.152 0 0 0 8.153-8.153 8.155 8.155 0 0 0-8.154-8.153zm-95.661 26.089H278.19c2.847-10.623 11.674-16.464 24.557-24.198 15.738-9.446 35.325-21.204 35.325-50.265 0-21.278-17.311-38.59-38.59-38.59s-38.59 17.312-38.59 38.59c0 4.504 3.65 8.153 8.153 8.153s8.153-3.649 8.153-8.153c0-12.288 9.997-22.284 22.285-22.284s22.284 9.997 22.284 22.284c0 19.831-12.097 27.093-27.411 36.285-6.64 3.985-13.649 8.201-19.532 13.722-11.134-55.419-60.182-97.293-118.832-97.293-66.833 0-121.206 54.373-121.206 121.206v188.785l-13.714 5.714A34.149 34.149 0 0 0 0 451.669v34.786C0 500.54 11.46 512 25.546 512h260.892c14.086 0 25.546-11.46 25.546-25.546v-34.786a34.153 34.153 0 0 0-21.071-31.608l-13.714-5.714V242.412h52.722a8.152 8.152 0 0 0 8.153-8.153 8.156 8.156 0 0 0-8.155-8.153zm-278.828-.543c0-57.842 47.058-104.9 104.9-104.9s104.9 47.058 104.9 104.9v28.37a25.423 25.423 0 0 0-9.24-1.737h-2.186c-1.393-6.142-6.18-11.13-12.737-12.684-26.321-6.237-50.081-19.839-68.711-39.333-3.111-3.255-7.494-5.122-12.026-5.122s-8.915 1.868-12.026 5.122c-18.631 19.494-42.391 33.094-68.711 39.333-6.557 1.553-11.346 6.542-12.738 12.684h-2.185c-3.258 0-6.372.62-9.24 1.737v-28.37zm104.901 121.206c31.214 0 52.574-6.536 66.428-13.435a26.612 26.612 0 0 1-8.203 7.091l-45.291 25.161c-8.1 4.499-17.769 4.499-25.869 0l-45.291-25.161a26.61 26.61 0 0 1-13.588-20.869l-5.78-63.58c-.029-.324.352-.534.616-.597 29.393-6.965 55.929-22.157 76.739-43.933a.329.329 0 0 1 .476 0c20.812 21.776 47.347 36.967 76.74 43.933.264.063.646.273.616.597l-4.902 53.901c-6.657 5.887-27.775 20.587-72.694 20.587a8.153 8.153 0 1 0 .003 16.305zm-35.33 32.43v-7.403l14.476 8.043c6.529 3.626 13.69 5.441 20.853 5.441s14.324-1.813 20.853-5.441l14.476-8.042v7.403a25.476 25.476 0 0 0 15.72 23.58l9.251 3.855c-26.837 32.016-53.083 42.724-60.324 45.205-7.272-2.448-33.281-12.971-60.278-45.204l9.252-3.855a25.48 25.48 0 0 0 15.721-23.582zm92.651 8.53a9.214 9.214 0 0 1-5.686-8.529v-16.461l14.509-8.06a42.904 42.904 0 0 0 21.909-33.646l.031-.352h7.576c3.258 0 6.372-.62 9.24-1.736v88.61l-47.579-19.826zm38.339-83.355h-6.093l3.261-35.873h2.832c5.095 0 9.24 4.145 9.24 9.24v17.393c0 5.096-4.145 9.24-9.24 9.24zM51.091 277.741c0-5.095 4.145-9.24 9.24-9.24h2.832l3.261 35.873h-6.093c-5.095 0-9.24-4.145-9.24-9.24v-17.393zm0 41.202a25.422 25.422 0 0 0 9.24 1.736h7.576l.033.352a42.904 42.904 0 0 0 21.909 33.646l14.508 8.06V379.2a9.215 9.215 0 0 1-5.686 8.529l-47.579 19.824v-88.61zm1.087 176.751H25.546c-5.095 0-9.24-4.145-9.24-9.24v-34.786c0-2.248.417-4.421 1.189-6.435l27.952 22.363a17.843 17.843 0 0 1 6.731 14.005v14.093zm16.306 0V481.6c0-10.46-4.684-20.205-12.851-26.738l-25.921-20.737 41.567-17.32c3.056 13.105 10.804 43.119 24.918 78.888H68.484zm45.279 0c-11.665-28.612-19.294-54.31-23.607-70.673 32.48 35.067 62.473 42.908 63.86 43.255a8.163 8.163 0 0 0 3.954 0c1.387-.347 31.379-8.187 63.86-43.255-4.314 16.363-11.942 42.061-23.607 70.673h-84.46zm180.725-50.46a17.958 17.958 0 0 1 1.189 6.435v34.786c0 5.095-4.145 9.24-9.24 9.24h-26.633v-14.094a17.848 17.848 0 0 1 6.731-14.006l27.953-22.361zm-12.217-11.108l-25.921 20.737c-8.167 6.533-12.851 16.279-12.851 26.738v14.094h-27.713c14.115-35.769 21.864-65.783 24.918-78.888l41.567 17.319z"/></svg>